M48
INCH,TZ
T01C.016
;LEADER: 12 
;HEADER: 
;CODE  : ASCII 
;FILE  : DRILL-1-2.drl for  ... layers TOP and BOTTOM
;DESIGN: P1_V3_PCB.brd
;T01 Holesize 1. = 16.000000 Tolerance = +0.000000/-0.000000 PLATED MILS Quantity = 25
%
G90
T01
X146000Y101000
X103000Y61000
X57000Y81000
X13000Y65000
X146400Y11400
X13000Y108000
X37000Y100000
X89000Y128000
X64000Y113000
X40000Y66000
X129000Y41000
X133000Y73000
X55000Y56000
X65000Y52000
X62400Y28600
X86000Y51000
Y28000
X60000Y89000
X70700Y93000
X73000Y51000
X107000Y121000
Y134000
X98000Y95000
X125000Y15000
X93900Y49900
M30
