G04 ================== begin FILE IDENTIFICATION RECORD ==================*
G04 Layout Name:  P1_V3_PCB.brd*
G04 Film Name:    SPTOP*
G04 File Format:  Gerber RS274X*
G04 File Origin:  Cadence Allegro 17.2-S025*
G04 Origin Date:  Fri Dec 12 17:17:49 2025*
G04 *
G04 Layer:  PIN/PASTEMASK_TOP*
G04 Layer:  PACKAGE GEOMETRY/PASTEMASK_TOP*
G04 *
G04 Offset:    (0.00 0.00)*
G04 Mirror:    No*
G04 Mode:      Positive*
G04 Rotation:  0*
G04 FullContactRelief:  No*
G04 UndefLineWidth:     10.00*
G04 ================== end FILE IDENTIFICATION RECORD ====================*
%FSLAX25Y25*MOIN*%
%IR0*IPPOS*OFA0.00000B0.00000*MIA0B0*SFA1.00000B1.00000*%
%ADD12C,.04*%
%ADD10R,.108X.0684*%
%ADD13R,.045X.045*%
%ADD16R,.04605X.04605*%
%ADD15R,.0324X.045*%
%ADD14R,.045X.0324*%
%ADD11R,.0432X.0684*%
%ADD17R,.04605X.07083*%
%LPD*%
G75*
G54D10*
X13000Y32000D03*
Y55600D03*
Y140000D03*
Y116400D03*
X147000Y68000D03*
Y91600D03*
G54D11*
X10100Y75000D03*
X10000Y99000D03*
X18000Y75000D03*
X17900Y99000D03*
X98000Y105000D03*
X105900D03*
G54D12*
X20000Y20000D03*
X140000Y140000D03*
G54D13*
X34000Y30000D03*
Y21600D03*
X33000Y45600D03*
X29000Y67000D03*
Y75400D03*
X33000Y54000D03*
X29000Y88000D03*
Y96400D03*
Y108000D03*
Y116400D03*
Y131000D03*
Y139400D03*
X54000Y20000D03*
X62400D03*
X64000Y80000D03*
X72400D03*
X64000Y63000D03*
X72400D03*
X50000Y72600D03*
Y81000D03*
X60000Y142000D03*
X51600D03*
X72600D03*
X75000Y20000D03*
X83400D03*
X96000D03*
X92000Y61000D03*
Y69400D03*
X89000Y84000D03*
Y92400D03*
X100000Y128000D03*
Y119600D03*
X81000Y142000D03*
X103000D03*
X94600D03*
X104400Y20000D03*
X124000Y142000D03*
X115600D03*
X139000Y39000D03*
X147400D03*
X138000Y21000D03*
X146400D03*
G54D14*
X72900Y41100D03*
X50900D03*
X59000Y37000D03*
Y45200D03*
X68000Y107000D03*
Y98800D03*
X46900Y98100D03*
X55000Y94000D03*
Y102200D03*
X66900Y124100D03*
X93900Y40100D03*
X102000Y36000D03*
Y44200D03*
X81000Y37000D03*
Y45200D03*
X76100Y102900D03*
X75000Y120000D03*
Y128200D03*
X116900Y29100D03*
X125000Y25000D03*
Y33200D03*
X122100Y122900D03*
X114000Y127000D03*
Y118800D03*
X145100Y116900D03*
X137000Y121000D03*
Y112800D03*
G54D15*
X50900Y115900D03*
X55000Y124000D03*
X46800D03*
G54D16*
X110000Y63055D03*
Y54000D03*
X109000Y91055D03*
Y82000D03*
G54D17*
X132244Y58528D03*
X131244Y86528D03*
M02*
