G04 ================== begin FILE IDENTIFICATION RECORD ==================*
G04 Layout Name:  P1_V3_PCB.brd*
G04 Film Name:    SSTOP*
G04 File Format:  Gerber RS274X*
G04 File Origin:  Cadence Allegro 17.2-S025*
G04 Origin Date:  Sat Dec 13 12:28:43 2025*
G04 *
G04 Layer:  REF DES/SILKSCREEN_TOP*
G04 Layer:  PACKAGE GEOMETRY/SILKSCREEN_TOP*
G04 Layer:  BOARD GEOMETRY/SILKSCREEN_TOP*
G04 *
G04 Offset:    (0.00 0.00)*
G04 Mirror:    No*
G04 Mode:      Positive*
G04 Rotation:  0*
G04 FullContactRelief:  No*
G04 UndefLineWidth:     10.00*
G04 ================== end FILE IDENTIFICATION RECORD ====================*
%FSLAX25Y25*MOIN*%
%IR0*IPPOS*OFA0.00000B0.00000*MIA0B0*SFA1.00000B1.00000*%
%ADD10C,.01*%
%ADD11C,.005*%
%ADD12C,.006*%
%ADD13C,.00787*%
G75*
%LPD*%
G75*
G54D10*
G01X52200Y38600D02*
Y35100D01*
X55700D01*
G01X57800Y42700D02*
Y39600D01*
G01X52200Y43700D02*
Y47100D01*
X55700D01*
G01X69200Y101300D02*
Y104400D01*
G01X48200Y95600D02*
Y92100D01*
X51700D01*
G01X53800Y99700D02*
Y96600D01*
G01X48200Y100700D02*
Y104100D01*
X51700D01*
G01X68200Y121600D02*
Y118100D01*
X71700D01*
G01X68200Y126700D02*
Y130100D01*
X71700D01*
G01X53400Y117200D02*
X56900D01*
Y120700D01*
G01X49300Y122800D02*
X52400D01*
G01X48300Y117200D02*
X44900D01*
Y120700D01*
G01X95200Y37600D02*
Y34100D01*
X98700D01*
G01X95200Y42700D02*
Y46100D01*
X98700D01*
G01X74200Y38600D02*
Y35100D01*
X77700D01*
G01X79800Y42700D02*
Y39600D01*
G01X74200Y43700D02*
Y47100D01*
X77700D01*
G01X74800Y105400D02*
Y108900D01*
X71300D01*
G01X74800Y100300D02*
Y96900D01*
X71300D01*
G01X73800Y125700D02*
Y122600D01*
G01X118200Y26600D02*
Y23100D01*
X121700D01*
G01X123800Y30700D02*
Y27600D01*
G01X118200Y31700D02*
Y35100D01*
X121700D01*
G01X100800Y41700D02*
Y38600D01*
G01X120800Y125400D02*
Y128900D01*
X117300D01*
G01X115200Y121300D02*
Y124400D01*
G01X120800Y120300D02*
Y116900D01*
X117300D01*
G01X143800Y119400D02*
Y122900D01*
X140300D01*
G01X138200Y115300D02*
Y118400D01*
G01X143800Y114300D02*
Y110900D01*
X140300D01*
G54D11*
G01X6967Y89400D02*
Y91900D01*
X7633D01*
X7900Y91775D01*
X8100Y91608D01*
X8267Y91358D01*
X8400Y91067D01*
X8433Y90650D01*
X8400Y90233D01*
X8267Y89942D01*
X8100Y89692D01*
X7900Y89525D01*
X7633Y89400D01*
X6967D01*
G01X11600D02*
Y91900D01*
X11200Y91400D01*
G01Y89400D02*
X12000D01*
G01X10187Y151000D02*
Y153500D01*
X11413Y151000D01*
Y153500D01*
G01X12600Y152125D02*
X13453D01*
X13373Y152417D01*
X13240Y152583D01*
X13053Y152667D01*
X12867Y152625D01*
X12707Y152500D01*
X12600Y152208D01*
X12547Y151958D01*
Y151708D01*
X12600Y151458D01*
X12733Y151208D01*
X12893Y151042D01*
X13080Y151000D01*
X13267Y151083D01*
X13453Y151333D01*
G01X14827Y150375D02*
X15013Y150208D01*
X15227Y150167D01*
X15413Y150208D01*
X15573Y150417D01*
X15680Y150708D01*
Y152667D01*
G01Y152333D02*
X15573Y152500D01*
X15413Y152625D01*
X15227Y152667D01*
X15013Y152583D01*
X14880Y152417D01*
X14773Y152125D01*
X14720Y151833D01*
X14747Y151583D01*
X14853Y151292D01*
X15013Y151083D01*
X15227Y151000D01*
X15387Y151042D01*
X15573Y151208D01*
X15680Y151375D01*
G01X17027Y151000D02*
Y152667D01*
G01Y152333D02*
X17160Y152500D01*
X17293Y152625D01*
X17480Y152667D01*
X17613Y152625D01*
X17773Y152500D01*
G01X19147Y152667D02*
Y151500D01*
X19253Y151208D01*
X19413Y151042D01*
X19600Y151000D01*
X19787Y151042D01*
X19947Y151208D01*
X20053Y151500D01*
G01Y151000D02*
Y152667D01*
G01X23387Y151000D02*
Y153500D01*
X24613Y151000D01*
Y153500D01*
G01X26200Y152667D02*
Y151000D01*
G01Y153333D02*
X26147Y153375D01*
Y153458D01*
X26200Y153500D01*
X26253Y153458D01*
Y153375D01*
X26200Y153333D01*
G01X28827Y152458D02*
X28640Y152625D01*
X28480Y152667D01*
X28267Y152583D01*
X28107Y152417D01*
X28000Y152125D01*
X27973Y151833D01*
X28000Y151542D01*
X28107Y151292D01*
X28267Y151083D01*
X28480Y151000D01*
X28667Y151083D01*
X28827Y151250D01*
G01X30147Y152667D02*
Y151500D01*
X30253Y151208D01*
X30413Y151042D01*
X30600Y151000D01*
X30787Y151042D01*
X30947Y151208D01*
X31053Y151500D01*
G01Y151000D02*
Y152667D01*
G01X32400Y151292D02*
X32533Y151125D01*
X32720Y151000D01*
X32880D01*
X33040Y151083D01*
X33147Y151208D01*
X33200Y151375D01*
X33173Y151625D01*
X33067Y151750D01*
X32587Y152000D01*
X32480Y152292D01*
X32533Y152500D01*
X32640Y152625D01*
X32800Y152667D01*
X32960Y152625D01*
X33120Y152500D01*
G01X35000Y151000D02*
X34840Y151042D01*
X34680Y151208D01*
X34573Y151500D01*
X34520Y151833D01*
X34573Y152167D01*
X34680Y152458D01*
X34840Y152625D01*
X35000Y152667D01*
X35160Y152625D01*
X35320Y152458D01*
X35427Y152167D01*
X35453Y151833D01*
X35427Y151500D01*
X35320Y151208D01*
X35160Y151042D01*
X35000Y151000D01*
G01X36827D02*
Y152667D01*
G01Y152333D02*
X36960Y152500D01*
X37093Y152625D01*
X37280Y152667D01*
X37413Y152625D01*
X37573Y152500D01*
G01X41760Y152250D02*
X42293D01*
Y151500D01*
X42133Y151250D01*
X41947Y151083D01*
X41680Y151000D01*
X41413Y151083D01*
X41227Y151250D01*
X41067Y151500D01*
X40960Y151792D01*
X40907Y152125D01*
Y152417D01*
X40960Y152667D01*
X41067Y152958D01*
X41227Y153208D01*
X41387Y153375D01*
X41600Y153500D01*
X41787D01*
X42000Y153417D01*
X42160Y153250D01*
G01X44280Y151000D02*
Y152667D01*
G01Y152375D02*
X44173Y152542D01*
X44013Y152625D01*
X43827Y152667D01*
X43640Y152583D01*
X43480Y152417D01*
X43373Y152167D01*
X43320Y151833D01*
X43373Y151500D01*
X43480Y151250D01*
X43640Y151083D01*
X43827Y151000D01*
X44013Y151042D01*
X44173Y151167D01*
X44280Y151333D01*
G01X45520Y151000D02*
Y153500D01*
G01Y152250D02*
X45653Y152500D01*
X45813Y152625D01*
X45973Y152667D01*
X46213Y152583D01*
X46373Y152417D01*
X46480Y152125D01*
Y151792D01*
X46427Y151458D01*
X46320Y151208D01*
X46133Y151042D01*
X45973Y151000D01*
X45813Y151042D01*
X45653Y151167D01*
X45520Y151375D01*
G01X47827Y151000D02*
Y152667D01*
G01Y152333D02*
X47960Y152500D01*
X48093Y152625D01*
X48280Y152667D01*
X48413Y152625D01*
X48573Y152500D01*
G01X50400Y152667D02*
Y151000D01*
G01Y153333D02*
X50347Y153375D01*
Y153458D01*
X50400Y153500D01*
X50453Y153458D01*
Y153375D01*
X50400Y153333D01*
G01X52200Y152125D02*
X53053D01*
X52973Y152417D01*
X52840Y152583D01*
X52653Y152667D01*
X52467Y152625D01*
X52307Y152500D01*
X52200Y152208D01*
X52147Y151958D01*
Y151708D01*
X52200Y151458D01*
X52333Y151208D01*
X52493Y151042D01*
X52680Y151000D01*
X52867Y151083D01*
X53053Y151333D01*
G01X54800Y151000D02*
Y153500D01*
G01X59520Y151000D02*
Y153500D01*
X58533Y151708D01*
X59867D01*
G01X60813Y151500D02*
X60973Y151208D01*
X61187Y151042D01*
X61427Y151000D01*
X61640Y151042D01*
X61853Y151250D01*
X61987Y151500D01*
X62013Y151750D01*
X61960Y152042D01*
X61773Y152250D01*
X61587Y152333D01*
X61347D01*
G01X61587D02*
X61747Y152458D01*
X61880Y152667D01*
X61933Y152917D01*
X61880Y153167D01*
X61747Y153375D01*
X61507Y153500D01*
X61267Y153458D01*
X61027Y153292D01*
G01X63093Y153083D02*
X63253Y153333D01*
X63440Y153458D01*
X63653Y153500D01*
X63920Y153417D01*
X64107Y153208D01*
X64160Y152958D01*
X64133Y152708D01*
X64027Y152500D01*
X63493Y152083D01*
X63253Y151792D01*
X63093Y151375D01*
X63040Y151000D01*
X64160D01*
G01X66333D02*
X65267D01*
Y153500D01*
X66333D01*
G01X65907Y152292D02*
X65267D01*
G01X11387Y150192D02*
X11227Y150317D01*
X11040Y150400D01*
X10827D01*
X10587Y150275D01*
X10400Y150067D01*
X10267Y149817D01*
X10160Y149400D01*
X10133Y149025D01*
X10187Y148650D01*
X10267Y148400D01*
X10427Y148150D01*
X10613Y147983D01*
X10800Y147900D01*
X10987D01*
X11173Y147983D01*
X11333Y148108D01*
X11467Y148275D01*
G01X13533Y147900D02*
X12467D01*
Y150400D01*
X13533D01*
G01X13107Y149192D02*
X12467D01*
G01X14693Y147900D02*
Y150400D01*
X15707D01*
G01X15333Y149192D02*
X14693D01*
G01X17053Y148733D02*
X17747D01*
G01X19067Y147900D02*
Y150400D01*
X19707D01*
X19920Y150275D01*
X20080Y149983D01*
X20133Y149650D01*
X20080Y149317D01*
X19947Y149067D01*
X19707Y148942D01*
X19067D01*
G01X21427Y147900D02*
Y149567D01*
G01Y149233D02*
X21560Y149400D01*
X21693Y149525D01*
X21880Y149567D01*
X22013Y149525D01*
X22173Y149400D01*
G01X25693Y149983D02*
X25853Y150233D01*
X26040Y150358D01*
X26253Y150400D01*
X26520Y150317D01*
X26707Y150108D01*
X26760Y149858D01*
X26733Y149608D01*
X26627Y149400D01*
X26093Y148983D01*
X25853Y148692D01*
X25693Y148275D01*
X25640Y147900D01*
X26760D01*
G01X28400Y150400D02*
X28187Y150317D01*
X28027Y150108D01*
X27920Y149858D01*
X27840Y149525D01*
X27813Y149150D01*
X27840Y148775D01*
X27920Y148442D01*
X28027Y148192D01*
X28187Y147983D01*
X28400Y147900D01*
X28613Y147983D01*
X28773Y148192D01*
X28880Y148442D01*
X28960Y148775D01*
X28987Y149150D01*
X28960Y149525D01*
X28880Y149858D01*
X28773Y150108D01*
X28613Y150317D01*
X28400Y150400D01*
G01X30093Y149983D02*
X30253Y150233D01*
X30440Y150358D01*
X30653Y150400D01*
X30920Y150317D01*
X31107Y150108D01*
X31160Y149858D01*
X31133Y149608D01*
X31027Y149400D01*
X30493Y148983D01*
X30253Y148692D01*
X30093Y148275D01*
X30040Y147900D01*
X31160D01*
G01X32213Y148275D02*
X32373Y148067D01*
X32560Y147942D01*
X32800Y147900D01*
X33040Y147983D01*
X33227Y148150D01*
X33360Y148442D01*
X33387Y148775D01*
X33333Y149108D01*
X33200Y149317D01*
X33013Y149483D01*
X32827Y149525D01*
X32640Y149483D01*
X32400Y149317D01*
X32480Y150400D01*
X33200D01*
G01X34653Y148733D02*
X35347D01*
G01X36693Y149983D02*
X36853Y150233D01*
X37040Y150358D01*
X37253Y150400D01*
X37520Y150317D01*
X37707Y150108D01*
X37760Y149858D01*
X37733Y149608D01*
X37627Y149400D01*
X37093Y148983D01*
X36853Y148692D01*
X36693Y148275D01*
X36640Y147900D01*
X37760D01*
G01X39400Y150400D02*
X39187Y150317D01*
X39027Y150108D01*
X38920Y149858D01*
X38840Y149525D01*
X38813Y149150D01*
X38840Y148775D01*
X38920Y148442D01*
X39027Y148192D01*
X39187Y147983D01*
X39400Y147900D01*
X39613Y147983D01*
X39773Y148192D01*
X39880Y148442D01*
X39960Y148775D01*
X39987Y149150D01*
X39960Y149525D01*
X39880Y149858D01*
X39773Y150108D01*
X39613Y150317D01*
X39400Y150400D01*
G01X41093Y149983D02*
X41253Y150233D01*
X41440Y150358D01*
X41653Y150400D01*
X41920Y150317D01*
X42107Y150108D01*
X42160Y149858D01*
X42133Y149608D01*
X42027Y149400D01*
X41493Y148983D01*
X41253Y148692D01*
X41093Y148275D01*
X41040Y147900D01*
X42160D01*
G01X43293Y148942D02*
X43480Y149233D01*
X43640Y149400D01*
X43853Y149483D01*
X44040Y149400D01*
X44173Y149233D01*
X44280Y148983D01*
X44307Y148692D01*
X44280Y148442D01*
X44173Y148192D01*
X44013Y147983D01*
X43827Y147900D01*
X43613Y147983D01*
X43427Y148233D01*
X43320Y148608D01*
X43293Y149025D01*
X43347Y149567D01*
X43427Y149858D01*
X43560Y150150D01*
X43747Y150358D01*
X43933Y150400D01*
X44120Y150317D01*
X44253Y150108D01*
G01X21933Y37800D02*
X22100Y37550D01*
X22300Y37383D01*
X22533Y37300D01*
X22800Y37383D01*
X23000Y37550D01*
X23200Y37800D01*
X23267Y38133D01*
Y39800D01*
G01X25867Y39383D02*
X26067Y39633D01*
X26300Y39758D01*
X26567Y39800D01*
X26900Y39717D01*
X27133Y39508D01*
X27200Y39258D01*
X27167Y39008D01*
X27033Y38800D01*
X26367Y38383D01*
X26067Y38092D01*
X25867Y37675D01*
X25800Y37300D01*
X27200D01*
G01X38833Y25700D02*
Y28200D01*
X39667D01*
X39933Y28075D01*
X40100Y27908D01*
X40167Y27575D01*
X40100Y27242D01*
X39900Y27033D01*
X39667Y26908D01*
X38833D01*
G01X39667D02*
X40167Y25700D01*
G01X43400D02*
Y28200D01*
X43000Y27700D01*
G01Y25700D02*
X43800D01*
G01X47300D02*
X47533Y25742D01*
X47800Y25867D01*
X47967Y26075D01*
X48033Y26367D01*
X47967Y26658D01*
X47767Y26908D01*
X47467Y27033D01*
X47133D01*
X46933Y27117D01*
X46767Y27325D01*
X46700Y27617D01*
X46800Y27908D01*
X47033Y28117D01*
X47300Y28200D01*
X47567Y28117D01*
X47800Y27908D01*
X47900Y27617D01*
X47833Y27325D01*
X47667Y27117D01*
X47467Y27033D01*
X47133D01*
X46833Y26908D01*
X46633Y26658D01*
X46567Y26367D01*
X46633Y26075D01*
X46800Y25867D01*
X47067Y25742D01*
X47300Y25700D01*
G01X34233Y71000D02*
Y73500D01*
X35067D01*
X35333Y73375D01*
X35500Y73208D01*
X35567Y72875D01*
X35500Y72542D01*
X35300Y72333D01*
X35067Y72208D01*
X34233D01*
G01X35067D02*
X35567Y71000D01*
G01X38067Y71500D02*
X38267Y71208D01*
X38533Y71042D01*
X38833Y71000D01*
X39100Y71042D01*
X39367Y71250D01*
X39533Y71500D01*
X39567Y71750D01*
X39500Y72042D01*
X39267Y72250D01*
X39033Y72333D01*
X38733D01*
G01X39033D02*
X39233Y72458D01*
X39400Y72667D01*
X39467Y72917D01*
X39400Y73167D01*
X39233Y73375D01*
X38933Y73500D01*
X38633Y73458D01*
X38333Y73292D01*
G01X38233Y49600D02*
Y52100D01*
X39067D01*
X39333Y51975D01*
X39500Y51808D01*
X39567Y51475D01*
X39500Y51142D01*
X39300Y50933D01*
X39067Y50808D01*
X38233D01*
G01X39067D02*
X39567Y49600D01*
G01X42800D02*
Y52100D01*
X42400Y51600D01*
G01Y49600D02*
X43200D01*
G01X46133Y49892D02*
X46367Y49683D01*
X46633Y49600D01*
X46900Y49683D01*
X47133Y49933D01*
X47300Y50308D01*
X47367Y50683D01*
Y51142D01*
X47300Y51517D01*
X47133Y51850D01*
X46933Y52017D01*
X46700Y52100D01*
X46433Y52017D01*
X46233Y51850D01*
X46100Y51600D01*
X46033Y51267D01*
X46100Y50975D01*
X46267Y50683D01*
X46467Y50517D01*
X46700Y50475D01*
X46967Y50558D01*
X47167Y50767D01*
X47367Y51142D01*
G01X16367Y82200D02*
Y84700D01*
X17033D01*
X17300Y84575D01*
X17500Y84408D01*
X17667Y84158D01*
X17800Y83867D01*
X17833Y83450D01*
X17800Y83033D01*
X17667Y82742D01*
X17500Y82492D01*
X17300Y82325D01*
X17033Y82200D01*
X16367D01*
G01X20367Y84283D02*
X20567Y84533D01*
X20800Y84658D01*
X21067Y84700D01*
X21400Y84617D01*
X21633Y84408D01*
X21700Y84158D01*
X21667Y83908D01*
X21533Y83700D01*
X20867Y83283D01*
X20567Y82992D01*
X20367Y82575D01*
X20300Y82200D01*
X21700D01*
G01X39733Y81600D02*
Y84100D01*
X40567D01*
X40833Y83975D01*
X41000Y83808D01*
X41067Y83475D01*
X41000Y83142D01*
X40800Y82933D01*
X40567Y82808D01*
X39733D01*
G01X40567D02*
X41067Y81600D01*
G01X44300D02*
Y84100D01*
X43900Y83600D01*
G01Y81600D02*
X44700D01*
G01X33733Y91000D02*
Y93500D01*
X34567D01*
X34833Y93375D01*
X35000Y93208D01*
X35067Y92875D01*
X35000Y92542D01*
X34800Y92333D01*
X34567Y92208D01*
X33733D01*
G01X34567D02*
X35067Y91000D01*
G01X37667Y93083D02*
X37867Y93333D01*
X38100Y93458D01*
X38367Y93500D01*
X38700Y93417D01*
X38933Y93208D01*
X39000Y92958D01*
X38967Y92708D01*
X38833Y92500D01*
X38167Y92083D01*
X37867Y91792D01*
X37667Y91375D01*
X37600Y91000D01*
X39000D01*
G01X21233Y123400D02*
X21400Y123150D01*
X21600Y122983D01*
X21833Y122900D01*
X22100Y122983D01*
X22300Y123150D01*
X22500Y123400D01*
X22567Y123733D01*
Y125400D01*
G01X25800Y122900D02*
Y125400D01*
X25400Y124900D01*
G01Y122900D02*
X26200D01*
G01X34433Y108100D02*
Y110600D01*
X35267D01*
X35533Y110475D01*
X35700Y110308D01*
X35767Y109975D01*
X35700Y109642D01*
X35500Y109433D01*
X35267Y109308D01*
X34433D01*
G01X35267D02*
X35767Y108100D01*
G01X39000D02*
Y110600D01*
X38600Y110100D01*
G01Y108100D02*
X39400D01*
G01X42267Y109142D02*
X42500Y109433D01*
X42700Y109600D01*
X42967Y109683D01*
X43200Y109600D01*
X43367Y109433D01*
X43500Y109183D01*
X43533Y108892D01*
X43500Y108642D01*
X43367Y108392D01*
X43167Y108183D01*
X42933Y108100D01*
X42667Y108183D01*
X42433Y108433D01*
X42300Y108808D01*
X42267Y109225D01*
X42333Y109767D01*
X42433Y110058D01*
X42600Y110350D01*
X42833Y110558D01*
X43067Y110600D01*
X43300Y110517D01*
X43467Y110308D01*
G01X34633Y129400D02*
Y131900D01*
X35467D01*
X35733Y131775D01*
X35900Y131608D01*
X35967Y131275D01*
X35900Y130942D01*
X35700Y130733D01*
X35467Y130608D01*
X34633D01*
G01X35467D02*
X35967Y129400D01*
G01X39200D02*
Y131900D01*
X38800Y131400D01*
G01Y129400D02*
X39600D01*
G01X43033D02*
X43100Y129942D01*
X43200Y130400D01*
X43333Y130817D01*
X43500Y131275D01*
X43767Y131900D01*
X42433D01*
G01X55833Y8700D02*
Y11200D01*
X56667D01*
X56933Y11075D01*
X57100Y10908D01*
X57167Y10575D01*
X57100Y10242D01*
X56900Y10033D01*
X56667Y9908D01*
X55833D01*
G01X56667D02*
X57167Y8700D01*
G01X60800D02*
Y11200D01*
X59567Y9408D01*
X61233D01*
G01X52850Y30500D02*
X52517Y30542D01*
X52225Y30708D01*
X51975Y30958D01*
X51808Y31250D01*
X51725Y31583D01*
Y31917D01*
X51808Y32250D01*
X51975Y32542D01*
X52225Y32792D01*
X52517Y32958D01*
X52850Y33000D01*
X53183Y32958D01*
X53475Y32792D01*
X53725Y32542D01*
X53892Y32250D01*
X53975Y31917D01*
Y31583D01*
X53892Y31250D01*
X53725Y30958D01*
X53475Y30708D01*
X53183Y30542D01*
X52850Y30500D01*
G01X53183Y31167D02*
X53683Y30500D01*
G01X56650D02*
Y33000D01*
X56150Y32500D01*
G01Y30500D02*
X57150D01*
G01X64333Y74792D02*
X64133Y74917D01*
X63900Y75000D01*
X63633D01*
X63333Y74875D01*
X63100Y74667D01*
X62933Y74417D01*
X62800Y74000D01*
X62767Y73625D01*
X62833Y73250D01*
X62933Y73000D01*
X63133Y72750D01*
X63367Y72583D01*
X63600Y72500D01*
X63833D01*
X64067Y72583D01*
X64267Y72708D01*
X64433Y72875D01*
G01X67500Y72500D02*
Y75000D01*
X67100Y74500D01*
G01Y72500D02*
X67900D01*
G01X55133Y61492D02*
X54933Y61617D01*
X54700Y61700D01*
X54433D01*
X54133Y61575D01*
X53900Y61367D01*
X53733Y61117D01*
X53600Y60700D01*
X53567Y60325D01*
X53633Y59950D01*
X53733Y59700D01*
X53933Y59450D01*
X54167Y59283D01*
X54400Y59200D01*
X54633D01*
X54867Y59283D01*
X55067Y59408D01*
X55233Y59575D01*
G01X57667Y61283D02*
X57867Y61533D01*
X58100Y61658D01*
X58367Y61700D01*
X58700Y61617D01*
X58933Y61408D01*
X59000Y61158D01*
X58967Y60908D01*
X58833Y60700D01*
X58167Y60283D01*
X57867Y59992D01*
X57667Y59575D01*
X57600Y59200D01*
X59000D01*
G01X51350Y105500D02*
X51017Y105542D01*
X50725Y105708D01*
X50475Y105958D01*
X50308Y106250D01*
X50225Y106583D01*
Y106917D01*
X50308Y107250D01*
X50475Y107542D01*
X50725Y107792D01*
X51017Y107958D01*
X51350Y108000D01*
X51683Y107958D01*
X51975Y107792D01*
X52225Y107542D01*
X52392Y107250D01*
X52475Y106917D01*
Y106583D01*
X52392Y106250D01*
X52225Y105958D01*
X51975Y105708D01*
X51683Y105542D01*
X51350Y105500D01*
G01X51683Y106167D02*
X52183Y105500D01*
G01X54233Y105875D02*
X54483Y105667D01*
X54775Y105542D01*
X55150Y105500D01*
X55525Y105583D01*
X55817Y105750D01*
X56025Y106042D01*
X56067Y106375D01*
X55983Y106708D01*
X55775Y106917D01*
X55483Y107083D01*
X55192Y107125D01*
X54900Y107083D01*
X54525Y106917D01*
X54650Y108000D01*
X55775D01*
G01X50133Y134100D02*
Y136600D01*
X50967D01*
X51233Y136475D01*
X51400Y136308D01*
X51467Y135975D01*
X51400Y135642D01*
X51200Y135433D01*
X50967Y135308D01*
X50133D01*
G01X50967D02*
X51467Y134100D01*
G01X54067Y135142D02*
X54300Y135433D01*
X54500Y135600D01*
X54767Y135683D01*
X55000Y135600D01*
X55167Y135433D01*
X55300Y135183D01*
X55333Y134892D01*
X55300Y134642D01*
X55167Y134392D01*
X54967Y134183D01*
X54733Y134100D01*
X54467Y134183D01*
X54233Y134433D01*
X54100Y134808D01*
X54067Y135225D01*
X54133Y135767D01*
X54233Y136058D01*
X54400Y136350D01*
X54633Y136558D01*
X54867Y136600D01*
X55100Y136517D01*
X55267Y136308D01*
G01X68050Y131900D02*
X67717Y131942D01*
X67425Y132108D01*
X67175Y132358D01*
X67008Y132650D01*
X66925Y132983D01*
Y133317D01*
X67008Y133650D01*
X67175Y133942D01*
X67425Y134192D01*
X67717Y134358D01*
X68050Y134400D01*
X68383Y134358D01*
X68675Y134192D01*
X68925Y133942D01*
X69092Y133650D01*
X69175Y133317D01*
Y132983D01*
X69092Y132650D01*
X68925Y132358D01*
X68675Y132108D01*
X68383Y131942D01*
X68050Y131900D01*
G01X68383Y132567D02*
X68883Y131900D01*
G01X72350D02*
Y134400D01*
X70808Y132608D01*
X72892D01*
G01X53550Y128000D02*
X53217Y128042D01*
X52925Y128208D01*
X52675Y128458D01*
X52508Y128750D01*
X52425Y129083D01*
Y129417D01*
X52508Y129750D01*
X52675Y130042D01*
X52925Y130292D01*
X53217Y130458D01*
X53550Y130500D01*
X53883Y130458D01*
X54175Y130292D01*
X54425Y130042D01*
X54592Y129750D01*
X54675Y129417D01*
Y129083D01*
X54592Y128750D01*
X54425Y128458D01*
X54175Y128208D01*
X53883Y128042D01*
X53550Y128000D01*
G01X53883Y128667D02*
X54383Y128000D01*
G01X56433Y128500D02*
X56683Y128208D01*
X57017Y128042D01*
X57392Y128000D01*
X57725Y128042D01*
X58058Y128250D01*
X58267Y128500D01*
X58308Y128750D01*
X58225Y129042D01*
X57933Y129250D01*
X57642Y129333D01*
X57267D01*
G01X57642D02*
X57892Y129458D01*
X58100Y129667D01*
X58183Y129917D01*
X58100Y130167D01*
X57892Y130375D01*
X57517Y130500D01*
X57142Y130458D01*
X56767Y130292D01*
G01X78633Y8700D02*
Y11200D01*
X79467D01*
X79733Y11075D01*
X79900Y10908D01*
X79967Y10575D01*
X79900Y10242D01*
X79700Y10033D01*
X79467Y9908D01*
X78633D01*
G01X79467D02*
X79967Y8700D01*
G01X82467Y9075D02*
X82667Y8867D01*
X82900Y8742D01*
X83200Y8700D01*
X83500Y8783D01*
X83733Y8950D01*
X83900Y9242D01*
X83933Y9575D01*
X83867Y9908D01*
X83700Y10117D01*
X83467Y10283D01*
X83233Y10325D01*
X83000Y10283D01*
X82700Y10117D01*
X82800Y11200D01*
X83700D01*
G01X98633Y8700D02*
Y11200D01*
X99467D01*
X99733Y11075D01*
X99900Y10908D01*
X99967Y10575D01*
X99900Y10242D01*
X99700Y10033D01*
X99467Y9908D01*
X98633D01*
G01X99467D02*
X99967Y8700D01*
G01X102633Y8992D02*
X102867Y8783D01*
X103133Y8700D01*
X103400Y8783D01*
X103633Y9033D01*
X103800Y9408D01*
X103867Y9783D01*
Y10242D01*
X103800Y10617D01*
X103633Y10950D01*
X103433Y11117D01*
X103200Y11200D01*
X102933Y11117D01*
X102733Y10950D01*
X102600Y10700D01*
X102533Y10367D01*
X102600Y10075D01*
X102767Y9783D01*
X102967Y9617D01*
X103200Y9575D01*
X103467Y9658D01*
X103667Y9867D01*
X103867Y10242D01*
G01X97850Y30200D02*
X97517Y30242D01*
X97225Y30408D01*
X96975Y30658D01*
X96808Y30950D01*
X96725Y31283D01*
Y31617D01*
X96808Y31950D01*
X96975Y32242D01*
X97225Y32492D01*
X97517Y32658D01*
X97850Y32700D01*
X98183Y32658D01*
X98475Y32492D01*
X98725Y32242D01*
X98892Y31950D01*
X98975Y31617D01*
Y31283D01*
X98892Y30950D01*
X98725Y30658D01*
X98475Y30408D01*
X98183Y30242D01*
X97850Y30200D01*
G01X98183Y30867D02*
X98683Y30200D01*
G01X101650D02*
X101942Y30242D01*
X102275Y30367D01*
X102483Y30575D01*
X102567Y30867D01*
X102483Y31158D01*
X102233Y31408D01*
X101858Y31533D01*
X101442D01*
X101192Y31617D01*
X100983Y31825D01*
X100900Y32117D01*
X101025Y32408D01*
X101317Y32617D01*
X101650Y32700D01*
X101983Y32617D01*
X102275Y32408D01*
X102400Y32117D01*
X102317Y31825D01*
X102108Y31617D01*
X101858Y31533D01*
X101442D01*
X101067Y31408D01*
X100817Y31158D01*
X100733Y30867D01*
X100817Y30575D01*
X101025Y30367D01*
X101358Y30242D01*
X101650Y30200D01*
G01X73950Y27800D02*
X73617Y27842D01*
X73325Y28008D01*
X73075Y28258D01*
X72908Y28550D01*
X72825Y28883D01*
Y29217D01*
X72908Y29550D01*
X73075Y29842D01*
X73325Y30092D01*
X73617Y30258D01*
X73950Y30300D01*
X74283Y30258D01*
X74575Y30092D01*
X74825Y29842D01*
X74992Y29550D01*
X75075Y29217D01*
Y28883D01*
X74992Y28550D01*
X74825Y28258D01*
X74575Y28008D01*
X74283Y27842D01*
X73950Y27800D01*
G01X74283Y28467D02*
X74783Y27800D01*
G01X76958Y29883D02*
X77208Y30133D01*
X77500Y30258D01*
X77833Y30300D01*
X78250Y30217D01*
X78542Y30008D01*
X78625Y29758D01*
X78583Y29508D01*
X78417Y29300D01*
X77583Y28883D01*
X77208Y28592D01*
X76958Y28175D01*
X76875Y27800D01*
X78625D01*
G01X84733Y74900D02*
Y77400D01*
X85567D01*
X85833Y77275D01*
X86000Y77108D01*
X86067Y76775D01*
X86000Y76442D01*
X85800Y76233D01*
X85567Y76108D01*
X84733D01*
G01X85567D02*
X86067Y74900D01*
G01X89300D02*
Y77400D01*
X88900Y76900D01*
G01Y74900D02*
X89700D01*
G01X93200D02*
Y77400D01*
X92800Y76900D01*
G01Y74900D02*
X93600D01*
G01X81833Y97900D02*
Y100400D01*
X82667D01*
X82933Y100275D01*
X83100Y100108D01*
X83167Y99775D01*
X83100Y99442D01*
X82900Y99233D01*
X82667Y99108D01*
X81833D01*
G01X82667D02*
X83167Y97900D01*
G01X86400D02*
Y100400D01*
X86000Y99900D01*
G01Y97900D02*
X86800D01*
G01X90300Y100400D02*
X90033Y100317D01*
X89833Y100108D01*
X89700Y99858D01*
X89600Y99525D01*
X89567Y99150D01*
X89600Y98775D01*
X89700Y98442D01*
X89833Y98192D01*
X90033Y97983D01*
X90300Y97900D01*
X90567Y97983D01*
X90767Y98192D01*
X90900Y98442D01*
X91000Y98775D01*
X91033Y99150D01*
X91000Y99525D01*
X90900Y99858D01*
X90767Y100108D01*
X90567Y100317D01*
X90300Y100400D01*
G01X97533Y135692D02*
X97333Y135817D01*
X97100Y135900D01*
X96833D01*
X96533Y135775D01*
X96300Y135567D01*
X96133Y135317D01*
X96000Y134900D01*
X95967Y134525D01*
X96033Y134150D01*
X96133Y133900D01*
X96333Y133650D01*
X96567Y133483D01*
X96800Y133400D01*
X97033D01*
X97267Y133483D01*
X97467Y133608D01*
X97633Y133775D01*
G01X99967Y133900D02*
X100167Y133608D01*
X100433Y133442D01*
X100733Y133400D01*
X101000Y133442D01*
X101267Y133650D01*
X101433Y133900D01*
X101467Y134150D01*
X101400Y134442D01*
X101167Y134650D01*
X100933Y134733D01*
X100633D01*
G01X100933D02*
X101133Y134858D01*
X101300Y135067D01*
X101367Y135317D01*
X101300Y135567D01*
X101133Y135775D01*
X100833Y135900D01*
X100533Y135858D01*
X100233Y135692D01*
G01X78950Y110200D02*
X78617Y110242D01*
X78325Y110408D01*
X78075Y110658D01*
X77908Y110950D01*
X77825Y111283D01*
Y111617D01*
X77908Y111950D01*
X78075Y112242D01*
X78325Y112492D01*
X78617Y112658D01*
X78950Y112700D01*
X79283Y112658D01*
X79575Y112492D01*
X79825Y112242D01*
X79992Y111950D01*
X80075Y111617D01*
Y111283D01*
X79992Y110950D01*
X79825Y110658D01*
X79575Y110408D01*
X79283Y110242D01*
X78950Y110200D01*
G01X79283Y110867D02*
X79783Y110200D01*
G01X81958Y111242D02*
X82250Y111533D01*
X82500Y111700D01*
X82833Y111783D01*
X83125Y111700D01*
X83333Y111533D01*
X83500Y111283D01*
X83542Y110992D01*
X83500Y110742D01*
X83333Y110492D01*
X83083Y110283D01*
X82792Y110200D01*
X82458Y110283D01*
X82167Y110533D01*
X82000Y110908D01*
X81958Y111325D01*
X82042Y111867D01*
X82167Y112158D01*
X82375Y112450D01*
X82667Y112658D01*
X82958Y112700D01*
X83250Y112617D01*
X83458Y112408D01*
G01X72833Y150100D02*
Y152600D01*
X73667D01*
X73933Y152475D01*
X74100Y152308D01*
X74167Y151975D01*
X74100Y151642D01*
X73900Y151433D01*
X73667Y151308D01*
X72833D01*
G01X73667D02*
X74167Y150100D01*
G01X77333D02*
X77400Y150642D01*
X77500Y151100D01*
X77633Y151517D01*
X77800Y151975D01*
X78067Y152600D01*
X76733D01*
G01X94433Y150700D02*
Y153200D01*
X95267D01*
X95533Y153075D01*
X95700Y152908D01*
X95767Y152575D01*
X95700Y152242D01*
X95500Y152033D01*
X95267Y151908D01*
X94433D01*
G01X95267D02*
X95767Y150700D01*
G01X99000D02*
X99233Y150742D01*
X99500Y150867D01*
X99667Y151075D01*
X99733Y151367D01*
X99667Y151658D01*
X99467Y151908D01*
X99167Y152033D01*
X98833D01*
X98633Y152117D01*
X98467Y152325D01*
X98400Y152617D01*
X98500Y152908D01*
X98733Y153117D01*
X99000Y153200D01*
X99267Y153117D01*
X99500Y152908D01*
X99600Y152617D01*
X99533Y152325D01*
X99367Y152117D01*
X99167Y152033D01*
X98833D01*
X98533Y151908D01*
X98333Y151658D01*
X98267Y151367D01*
X98333Y151075D01*
X98500Y150867D01*
X98767Y150742D01*
X99000Y150700D01*
G01X116867Y43500D02*
Y46000D01*
X117533D01*
X117747Y45875D01*
X117880Y45708D01*
X117933Y45375D01*
X117880Y45042D01*
X117720Y44833D01*
X117533Y44708D01*
X116867D01*
G01X117533D02*
X117933Y43500D01*
G01X119600D02*
Y46000D01*
X119280Y45500D01*
G01Y43500D02*
X119920D01*
G01X121213Y43875D02*
X121373Y43667D01*
X121560Y43542D01*
X121800Y43500D01*
X122040Y43583D01*
X122227Y43750D01*
X122360Y44042D01*
X122387Y44375D01*
X122333Y44708D01*
X122200Y44917D01*
X122013Y45083D01*
X121827Y45125D01*
X121640Y45083D01*
X121400Y44917D01*
X121480Y46000D01*
X122200D01*
G01X114550Y36400D02*
X114217Y36442D01*
X113925Y36608D01*
X113675Y36858D01*
X113508Y37150D01*
X113425Y37483D01*
Y37817D01*
X113508Y38150D01*
X113675Y38442D01*
X113925Y38692D01*
X114217Y38858D01*
X114550Y38900D01*
X114883Y38858D01*
X115175Y38692D01*
X115425Y38442D01*
X115592Y38150D01*
X115675Y37817D01*
Y37483D01*
X115592Y37150D01*
X115425Y36858D01*
X115175Y36608D01*
X114883Y36442D01*
X114550Y36400D01*
G01X114883Y37067D02*
X115383Y36400D01*
G01X118350D02*
Y38900D01*
X117850Y38400D01*
G01Y36400D02*
X118850D01*
G01X122150Y38900D02*
X121817Y38817D01*
X121567Y38608D01*
X121400Y38358D01*
X121275Y38025D01*
X121233Y37650D01*
X121275Y37275D01*
X121400Y36942D01*
X121567Y36692D01*
X121817Y36483D01*
X122150Y36400D01*
X122483Y36483D01*
X122733Y36692D01*
X122900Y36942D01*
X123025Y37275D01*
X123067Y37650D01*
X123025Y38025D01*
X122900Y38358D01*
X122733Y38608D01*
X122483Y38817D01*
X122150Y38900D01*
G01X111567Y109500D02*
Y107708D01*
X111700Y107333D01*
X111967Y107083D01*
X112300Y107000D01*
X112633Y107083D01*
X112900Y107333D01*
X113033Y107708D01*
Y109500D01*
G01X116200Y107000D02*
Y109500D01*
X115800Y109000D01*
G01Y107000D02*
X116600D01*
G01X120367Y98000D02*
Y100500D01*
X121033D01*
X121247Y100375D01*
X121380Y100208D01*
X121433Y99875D01*
X121380Y99542D01*
X121220Y99333D01*
X121033Y99208D01*
X120367D01*
G01X121033D02*
X121433Y98000D01*
G01X123100D02*
Y100500D01*
X122780Y100000D01*
G01Y98000D02*
X123420D01*
G01X125620D02*
Y100500D01*
X124633Y98708D01*
X125967D01*
G01X119450Y130600D02*
X119117Y130642D01*
X118825Y130808D01*
X118575Y131058D01*
X118408Y131350D01*
X118325Y131683D01*
Y132017D01*
X118408Y132350D01*
X118575Y132642D01*
X118825Y132892D01*
X119117Y133058D01*
X119450Y133100D01*
X119783Y133058D01*
X120075Y132892D01*
X120325Y132642D01*
X120492Y132350D01*
X120575Y132017D01*
Y131683D01*
X120492Y131350D01*
X120325Y131058D01*
X120075Y130808D01*
X119783Y130642D01*
X119450Y130600D01*
G01X119783Y131267D02*
X120283Y130600D01*
G01X123167D02*
X123250Y131142D01*
X123375Y131600D01*
X123542Y132017D01*
X123750Y132475D01*
X124083Y133100D01*
X122417D01*
G01X118133Y152792D02*
X117933Y152917D01*
X117700Y153000D01*
X117433D01*
X117133Y152875D01*
X116900Y152667D01*
X116733Y152417D01*
X116600Y152000D01*
X116567Y151625D01*
X116633Y151250D01*
X116733Y151000D01*
X116933Y150750D01*
X117167Y150583D01*
X117400Y150500D01*
X117633D01*
X117867Y150583D01*
X118067Y150708D01*
X118233Y150875D01*
G01X121700Y150500D02*
Y153000D01*
X120467Y151208D01*
X122133D01*
G01X134633Y13600D02*
Y16100D01*
X135467D01*
X135733Y15975D01*
X135900Y15808D01*
X135967Y15475D01*
X135900Y15142D01*
X135700Y14933D01*
X135467Y14808D01*
X134633D01*
G01X135467D02*
X135967Y13600D01*
G01X139200D02*
Y16100D01*
X138800Y15600D01*
G01Y13600D02*
X139600D01*
G01X142367Y14100D02*
X142567Y13808D01*
X142833Y13642D01*
X143133Y13600D01*
X143400Y13642D01*
X143667Y13850D01*
X143833Y14100D01*
X143867Y14350D01*
X143800Y14642D01*
X143567Y14850D01*
X143333Y14933D01*
X143033D01*
G01X143333D02*
X143533Y15058D01*
X143700Y15267D01*
X143767Y15517D01*
X143700Y15767D01*
X143533Y15975D01*
X143233Y16100D01*
X142933Y16058D01*
X142633Y15892D01*
G01X132733Y31500D02*
Y34000D01*
X133567D01*
X133833Y33875D01*
X134000Y33708D01*
X134067Y33375D01*
X134000Y33042D01*
X133800Y32833D01*
X133567Y32708D01*
X132733D01*
G01X133567D02*
X134067Y31500D01*
G01X137300D02*
Y34000D01*
X136900Y33500D01*
G01Y31500D02*
X137700D01*
G01X140567Y33583D02*
X140767Y33833D01*
X141000Y33958D01*
X141267Y34000D01*
X141600Y33917D01*
X141833Y33708D01*
X141900Y33458D01*
X141867Y33208D01*
X141733Y33000D01*
X141067Y32583D01*
X140767Y32292D01*
X140567Y31875D01*
X140500Y31500D01*
X141900D01*
G01X148033Y56700D02*
X148200Y56450D01*
X148400Y56283D01*
X148633Y56200D01*
X148900Y56283D01*
X149100Y56450D01*
X149300Y56700D01*
X149367Y57033D01*
Y58700D01*
G01X151867Y56700D02*
X152067Y56408D01*
X152333Y56242D01*
X152633Y56200D01*
X152900Y56242D01*
X153167Y56450D01*
X153333Y56700D01*
X153367Y56950D01*
X153300Y57242D01*
X153067Y57450D01*
X152833Y57533D01*
X152533D01*
G01X152833D02*
X153033Y57658D01*
X153200Y57867D01*
X153267Y58117D01*
X153200Y58367D01*
X153033Y58575D01*
X152733Y58700D01*
X152433Y58658D01*
X152133Y58492D01*
G01X139550Y106300D02*
X139217Y106342D01*
X138925Y106508D01*
X138675Y106758D01*
X138508Y107050D01*
X138425Y107383D01*
Y107717D01*
X138508Y108050D01*
X138675Y108342D01*
X138925Y108592D01*
X139217Y108758D01*
X139550Y108800D01*
X139883Y108758D01*
X140175Y108592D01*
X140425Y108342D01*
X140592Y108050D01*
X140675Y107717D01*
Y107383D01*
X140592Y107050D01*
X140425Y106758D01*
X140175Y106508D01*
X139883Y106342D01*
X139550Y106300D01*
G01X139883Y106967D02*
X140383Y106300D01*
G01X142642Y106592D02*
X142933Y106383D01*
X143267Y106300D01*
X143600Y106383D01*
X143892Y106633D01*
X144100Y107008D01*
X144183Y107383D01*
Y107842D01*
X144100Y108217D01*
X143892Y108550D01*
X143642Y108717D01*
X143350Y108800D01*
X143017Y108717D01*
X142767Y108550D01*
X142600Y108300D01*
X142517Y107967D01*
X142600Y107675D01*
X142808Y107383D01*
X143058Y107217D01*
X143350Y107175D01*
X143683Y107258D01*
X143933Y107467D01*
X144183Y107842D01*
G54D12*
G01X5500Y61050D02*
Y26550D01*
G01D02*
X20500D01*
G01X22000Y69850D02*
X6200D01*
G01D02*
Y80150D01*
G01X20500Y61050D02*
X5500D01*
G01X21800Y93850D02*
X6000D01*
G01D02*
Y98150D01*
G01D02*
X5150Y99000D01*
G01D02*
X6000Y99850D01*
G01D02*
Y104150D01*
G01D02*
X21800D01*
G01X6200Y80150D02*
X22000D01*
G01X5500Y110950D02*
X20500D01*
G01X5500Y145450D02*
Y110950D01*
G01X20500Y145450D02*
X5500D01*
G01X20500Y26550D02*
Y61050D01*
G01X30250Y17800D02*
Y33800D01*
G01D02*
X37750D01*
G01D02*
Y17800D01*
G01D02*
X30250D01*
G01X29250Y41800D02*
Y57800D01*
G01X36750D02*
Y41800D01*
G01D02*
X29250D01*
G01X22000Y80150D02*
Y75850D01*
G01D02*
X22850Y75000D01*
G01D02*
X22000Y74150D01*
G01D02*
Y69850D01*
G01X32750Y79200D02*
Y63200D01*
G01D02*
X25250D01*
G01D02*
Y79200D01*
G01X29250Y57800D02*
X36750D01*
G01X21800Y104150D02*
Y93850D01*
G01X32750Y100200D02*
Y84200D01*
G01D02*
X25250D01*
G01D02*
Y100200D01*
G01D02*
X32750D01*
G01X25250Y79200D02*
X32750D01*
G01Y120200D02*
Y104200D01*
G01D02*
X25250D01*
G01D02*
Y120200D01*
G01X20500Y110950D02*
Y145450D01*
G01X25250Y120200D02*
X32750D01*
G01Y143200D02*
Y127200D01*
G01D02*
X25250D01*
G01D02*
Y143200D01*
G01D02*
X32750D01*
G01X66200Y16250D02*
X50200D01*
G01D02*
Y23750D01*
G01X66200D02*
Y16250D01*
G01X50200Y23750D02*
X66200D01*
G01X76200Y76250D02*
X60200D01*
G01D02*
Y83750D01*
G01X76200Y59250D02*
X60200D01*
G01D02*
Y66750D01*
G01D02*
X76200D01*
G01X46250Y68800D02*
Y84800D01*
G01X53750D02*
Y68800D01*
G01D02*
X46250D01*
G01X60200Y83750D02*
X76200D01*
G01X46250Y84800D02*
X53750D01*
G01X47800Y145750D02*
X63800D01*
G01D02*
Y138250D01*
G01D02*
X47800D01*
G01D02*
Y145750D01*
G01X68800D02*
X84800D01*
G01Y138250D02*
X68800D01*
G01D02*
Y145750D01*
G01X87200Y16250D02*
X71200D01*
G01D02*
Y23750D01*
G01X87200D02*
Y16250D01*
G01X108200D02*
X92200D01*
G01D02*
Y23750D01*
G01X71200D02*
X87200D01*
G01X92200D02*
X108200D01*
G01X76200Y83750D02*
Y76250D01*
G01Y66750D02*
Y59250D01*
G01X95750Y73200D02*
Y57200D01*
G01D02*
X88250D01*
G01D02*
Y73200D01*
G01D02*
X95750D01*
G01X109800Y99850D02*
X94000D01*
G01D02*
Y104150D01*
G01D02*
X93150Y105000D01*
G01D02*
X94000Y105850D01*
G01D02*
Y110150D01*
G01X92750Y96200D02*
Y80200D01*
G01D02*
X85250D01*
G01D02*
Y96200D01*
G01D02*
X92750D01*
G01X96250Y115800D02*
Y131800D01*
G01D02*
X103750D01*
G01Y115800D02*
X96250D01*
G01X94000Y110150D02*
X109800D01*
G01X84800Y145750D02*
Y138250D01*
G01X90800Y145750D02*
X106800D01*
G01Y138250D02*
X90800D01*
G01D02*
Y145750D01*
G01X108200Y23750D02*
Y16250D01*
G01X109800Y110150D02*
Y99850D01*
G01X103750Y131800D02*
Y115800D01*
G01X111800Y145750D02*
X127800D01*
G01D02*
Y138250D01*
G01D02*
X111800D01*
G01D02*
Y145750D01*
G01X106800D02*
Y138250D01*
G01X150200Y17250D02*
X134200D01*
G01D02*
Y24750D01*
G01X150200D02*
Y17250D01*
G01X151200Y35250D02*
X135200D01*
G01D02*
Y42750D01*
G01D02*
X151200D01*
G01D02*
Y35250D01*
G01X134200Y24750D02*
X150200D01*
G01X139500Y97050D02*
Y62550D01*
G01D02*
X154500D01*
G01D02*
Y97050D01*
G01D02*
X139500D01*
G54D13*
G01X129965Y81016D02*
Y76685D01*
X110280D01*
Y77866D01*
G01X121122Y54000D02*
Y62858D01*
G01X125650Y58528D02*
X116594D01*
G01X121122Y52622D02*
G03X127028Y58528I0J5906D01*
G03X120925Y64433I-5909J-1D01*
G03X115217Y58528I194J-5899D01*
G03X121122Y52622I5905J-1D01*
G01X111280Y57543D02*
Y59512D01*
G01X130965Y64039D02*
Y68370D01*
X111280D01*
Y67189D01*
G01X130965Y53016D02*
Y48685D01*
X111280D01*
Y49866D01*
G01X120122Y82000D02*
Y90858D01*
G01X124650Y86528D02*
X115594D01*
G01X120122Y80622D02*
G03X126028Y86528I0J5906D01*
G03X119925Y92433I-5909J-1D01*
G03X114217Y86528I194J-5899D01*
G03X120122Y80622I5905J-1D01*
G01X110280Y85543D02*
Y87512D01*
G01X129965Y92039D02*
Y96370D01*
X110280D01*
Y95189D01*
M02*
